# xmcd
#
# Track frame offsets: 
#        150
#        18930
#        31082
#        41552
#        55489
#        67639
#        81436
#        95104
#        111713
#        128242
#
# Disc length: 1889 seconds
#
# Revision: 3
# Processed by: cddbd v1.5.1PL0 Copyright (c) Steve Scherf et al.
# Submitted via: ExactAudioCopy v0.95a5
#
DISCID=85075f0a
DTITLE=Waco Brothers - Do You Think About Me?
DYEAR=1997
DGENRE=Country
TTITLE0=Do You Think About Me?
TTITLE1=Revolution Blues
TTITLE2=Wickedest City
TTITLE3=Arizona Rose
TTITLE4=You Know Who
TTITLE5=Got To Be Someone
TTITLE6=Hard Times
TTITLE7=Napa Valley
TTITLE8=South Bend
TTITLE9=Frightened
EXTD=\nURL: http://www.billions.com/waco/index.htm "Waco Bros."\nURL: 
EXTD=http://www.narl.com/bloodshot/ "Bloodshot Home Page"
EXTT0=
EXTT1=
EXTT2=
EXTT3=
EXTT4=
EXTT5=
EXTT6=
EXTT7=
EXTT8=
EXTT9=
PLAYORDER=
